# File generated by ImageToStl.com - Free Image and 3D model conversion tools

o obj1
v 6.349999 -7.175601 9.48
v 6.349999 -7.175601 9.786778
v -6.349999 -7.175601 9.786778
v -6.349999 -7.175601 9.48
v -6.349999 -6.5 9.179999
v 6.349999 -6.5 9.179999
v -3.2 -5.597801 5.75
v -5.2 -5.597801 8.599998
v -5.2 -5.597801 5.75
v -3.2 -5.597801 8.599998
v -3.2 -5.597801 1.45
v -5.2 -5.597801 4.299999
v -5.2 -5.597801 1.45
v -3.2 -5.597801 4.299999
v 3.2 -5.597801 5.75
v 5.2 -5.597801 5.75
v 5.2 -5.597801 8.599998
v 3.2 -5.597801 8.599998
v 3.2 -5.597801 1.45
v 5.2 -5.597801 1.45
v 5.2 -5.597801 4.299999
v 3.2 -5.597801 4.299999
v 0.9499999 -5.597801 5.75
v -1.05 -5.597801 8.599998
v -1.05 -5.597801 5.75
v 0.9499999 -5.597801 8.599998
v -5.2 -6.5 8.599998
v -5.2 -6.5 5.75
v -3.2 -6.5 8.599998
v -3.2 -6.5 5.75
v -5.2 -6.5 4.299999
v -5.2 -6.5 1.45
v -3.2 -6.5 4.299999
v -3.2 -6.5 1.45
v 5.2 -6.5 8.599998
v 5.2 -6.5 5.75
v 3.2 -6.5 8.599998
v 3.2 -6.5 5.75
v 5.2 -6.5 4.299999
v 5.2 -6.5 1.45
v 3.2 -6.5 4.299999
v 3.2 -6.5 1.45
v -1.05 -6.5 8.599998
v -1.05 -6.5 5.75
v 0.9499999 -6.5 8.599998
v 0.9499999 -6.5 5.75
v -6.349999 -6.993317 9.948267
v 6.349999 -6.993317 9.948267
v 6.349999 -6.442575 9.931055
v -6.349999 -6.442575 9.931055
v 6.349999 -6.42908 10.36285
v -6.349999 -6.42908 10.36285
v -6.349999 -5.970305 10.34851
v 6.349999 -5.970305 10.34851
v -6.349999 -5.956811 10.7803
v 6.349999 -5.956811 10.7803
v -6.349999 -5.498035 10.76596
v 6.349999 -5.498035 10.76596
v -6.349999 -5.48454 11.19775
v 6.349999 -5.48454 11.19775
v -6.349999 -5.025764 11.18341
v 6.349999 -5.025764 11.18341
v -6.349999 -5.01227 11.6152
v 6.349999 -5.01227 11.6152
v -6.349999 -4.553495 11.60086
v 6.349999 -4.553495 11.60086
v -6.349999 -4.54 12.03265
v 6.349999 -4.54 12.03265
v -6.349999 -4.081224 12.01831
v 6.349999 -4.081224 12.01831
v -6.349999 -4.06773 12.4501
v 6.349999 -4.06773 12.4501
v -6.349999 -3.608955 12.43576
v 6.349999 -3.608955 12.43576
v -6.349999 -3.59546 12.86755
v 6.349999 -3.59546 12.86755
v -6.349999 -3.136684 12.85322
v 6.349999 -3.136684 12.85322
v -6.349999 -3.123191 13.285
v 6.349999 -3.123191 13.285
v -6.349999 -2.664414 13.27067
v 6.349999 -2.664414 13.27067
v -6.349999 -2.650545 13.71445
v 6.349999 -2.650545 13.71445
v -6.349999 -2.222754 13.70108
v 6.349999 -2.222754 13.70108
v 6.349999 -2.20926 14.13287
v -6.349999 -2.20926 14.13287
v -6.349999 -1.750484 14.11853
v 6.349999 -1.750484 14.11853
v 6.349999 -1.73699 14.55032
v -6.349999 -1.73699 14.55032
v 6.349999 -1.278214 14.53598
v -6.349999 -1.278214 14.53598
v 6.349999 -1.26472 14.96777
v -6.349999 -1.26472 14.96777
v -6.349999 -0.8059441 14.95344
v 6.349999 -0.8059441 14.95344
v -6.349999 -0.792325 15.38922
v 6.349999 -0.792325 15.38922
v 6.349999 -0.3305501 15.37479
v -6.349999 -0.3305501 15.37479
v -6.349999 -0.3170559 15.80658
v 6.349999 -0.3170559 15.80658
v 6.349999 0 15.79667
v -6.349999 0 15.79667
v 0.9379999 -6.5 4.35
v -1.038 -6.5 4.35
v -6.349999 -6.5 0
v 6.349999 -6.5 0
v 0.9379999 -6.5 0
v -1.038 -6.5 0
v -1.038 -5.587801 0
v -1.038 -5.587801 4.35
v 0.9379999 -5.587801 4.35
v 0.9379999 -5.587801 0
v 6.349999 7.175601 9.48
v -6.349999 7.175601 9.786778
v 6.349999 7.175601 9.786778
v -6.349999 7.175601 9.48
v -6.349999 6.5 9.179999
v 6.349999 6.5 9.179999
v -3.2 5.597801 5.75
v -5.2 5.597801 5.75
v -5.2 5.597801 8.599998
v -3.2 5.597801 8.599998
v -3.2 5.597801 1.45
v -5.2 5.597801 1.45
v -5.2 5.597801 4.299999
v -3.2 5.597801 4.299999
v 3.2 5.597801 5.75
v 5.2 5.597801 8.599998
v 5.2 5.597801 5.75
v 3.2 5.597801 8.599998
v 3.2 5.597801 1.45
v 5.2 5.597801 4.299999
v 5.2 5.597801 1.45
v 3.2 5.597801 4.299999
v 0.9499999 5.597801 5.75
v -1.05 5.597801 5.75
v -1.05 5.597801 8.599998
v 0.9499999 5.597801 8.599998
v -5.2 6.5 8.599998
v -5.2 6.5 5.75
v -3.2 6.5 8.599998
v -3.2 6.5 5.75
v -5.2 6.5 4.299999
v -5.2 6.5 1.45
v -3.2 6.5 4.299999
v -3.2 6.5 1.45
v 5.2 6.5 8.599998
v 5.2 6.5 5.75
v 3.2 6.5 8.599998
v 3.2 6.5 5.75
v 5.2 6.5 4.299999
v 5.2 6.5 1.45
v 3.2 6.5 4.299999
v 3.2 6.5 1.45
v -1.05 6.5 8.599998
v -1.05 6.5 5.75
v 0.9499999 6.5 8.599998
v 0.9499999 6.5 5.75
v 6.349999 0.3305501 15.37479
v 6.349999 0.3170559 15.80658
v 6.349999 6.5 0
v 6.349999 0.8059441 14.95344
v 6.349999 0.792325 15.38922
v 6.349999 2.664414 13.27067
v 6.349999 3.136684 12.85322
v 6.349999 3.123191 13.285
v 6.349999 4.081224 12.01831
v 6.349999 4.553495 11.60086
v 6.349999 4.54 12.03265
v 6.349999 1.278214 14.53598
v 6.349999 1.750484 14.11853
v 6.349999 1.73699 14.55032
v 6.349999 5.498035 10.76596
v 6.349999 5.970305 10.34851
v 6.349999 5.956811 10.7803
v 6.349999 5.025764 11.18341
v 6.349999 5.48454 11.19775
v 6.349999 3.608955 12.43576
v 6.349999 4.06773 12.4501
v 6.349999 6.993317 9.948267
v 6.349999 6.442575 9.931055
v 6.349999 6.42908 10.36285
v 6.349999 2.222754 13.70108
v 6.349999 2.650545 13.71445
v 6.349999 1.26472 14.96777
v 6.349999 2.20926 14.13287
v 6.349999 3.59546 12.86755
v 6.349999 5.01227 11.6152
v -6.349999 0.3170559 15.80658
v -6.349999 0.3305501 15.37479
v -6.349999 6.5 0
v -6.349999 0.792325 15.38922
v -6.349999 0.8059441 14.95344
v -6.349999 2.664414 13.27067
v -6.349999 3.123191 13.285
v -6.349999 3.136684 12.85322
v -6.349999 4.081224 12.01831
v -6.349999 4.54 12.03265
v -6.349999 4.553495 11.60086
v -6.349999 1.278214 14.53598
v -6.349999 1.73699 14.55032
v -6.349999 1.750484 14.11853
v -6.349999 5.498035 10.76596
v -6.349999 5.956811 10.7803
v -6.349999 5.970305 10.34851
v -6.349999 5.025764 11.18341
v -6.349999 5.48454 11.19775
v -6.349999 3.608955 12.43576
v -6.349999 4.06773 12.4501
v -6.349999 6.993317 9.948267
v -6.349999 6.42908 10.36285
v -6.349999 6.442575 9.931055
v -6.349999 2.222754 13.70108
v -6.349999 2.650545 13.71445
v -6.349999 1.26472 14.96777
v -6.349999 2.20926 14.13287
v -6.349999 3.59546 12.86755
v -6.349999 5.01227 11.6152
v 0.9379999 6.5 4.35
v -1.038 6.5 4.35
v -1.038 6.5 0
v 0.9379999 6.5 0
v -1.038 5.587801 0
v -1.038 5.587801 4.35
v 0.9379999 5.587801 4.35
v 0.9379999 5.587801 0
v -4.1 -1.125 13.10329
v -6.349999 -1.125 13.10329
v -6.349999 1.125 13.10329
v -4.1 1.125 13.10329
v -6.349999 -1.125 17.5
v -4.1 -1.125 17.5
v -4.1 1.125 17.5
v -6.349999 1.125 17.5
v 4.1 -1.125 13.10329
v 6.349999 1.125 13.10329
v 6.349999 -1.125 13.10329
v 4.1 1.125 13.10329
v 6.349999 -1.125 17.5
v 4.1 -1.125 17.5
v 4.1 1.125 17.5
v 6.349999 1.125 17.5
v 4.85 4.85 0
v 4.85 -4.8 0
v -4.8 -4.8 0
v -4.8 4.85 0
v -4.8 -4.8 8.403291
v -4.8 0.025 12.80329
v 4.85 -4.8 8.403291
v 4.85 0.025 12.80329
v -4.8 4.85 8.403291
v 4.85 4.85 8.403291
vn 0 -1 0
vn -0 -0.40584 -0.91395
vn 1 -0 0
vn 0 0 -1
vn -1 0 0
vn 0 -0 1
vn 0 -0.66312 0.74851
vn 0 0.03124 0.99951
vn 0 -0.99951 0.03124
vn -0 0.03124 0.99951
vn 0 -0.99951 0.03124
vn -0 0.03124 0.99951
vn 0 -0.99951 0.03124
vn 0 -0.99951 0.03124
vn -0 0.03124 0.99951
vn 0 -0.99951 0.03124
vn -0 0.03124 0.99951
vn 0 -0.99951 0.03124
vn 0 -0.99951 0.03124
vn -0 0.03124 0.99951
vn 0 -0.99951 0.03124
vn -0 0.03124 0.99951
vn 0 -0.99951 0.03124
vn 0 0.03124 0.99951
vn 0 -0.99951 0.03124
vn -0 0.03124 0.99951
vn 0 -0.99951 0.03124
vn 0 0.03123 0.99951
vn -0 0.03123 0.99951
vn 0 1 -0
vn 0 0.40584 -0.91395
vn 0 0.66312 0.74851
vn 0 -0.03124 0.99951
vn -0 0.99951 0.03124
vn 0 -0.03124 0.99951
vn 0 0.99951 0.03124
vn 0 -0.03124 0.99951
vn 0 0.99951 0.03124
vn 0 0.99951 0.03124
vn 0 -0.03124 0.99951
vn 0 0.99951 0.03124
vn 0 -0.03124 0.99951
vn 0 0.99951 0.03124
vn 0 0.99951 0.03124
vn 0 -0.03124 0.99951
vn 0 0.99951 0.03124
vn 0 -0.03124 0.99951
vn -0 0.99951 0.03124
vn 0 -0.03124 0.99951
vn -0 0.99951 0.03124
vn 0 -0.03124 0.99951
vn 0 0.99951 0.03124
vn 0 -0.03123 0.99951
vn 0 -0.03123 0.99951
vn 0 0 -1
vn 0 0 -1
vn 0 0 -1
vn 0 -0 -1
vn 0 0 -1
vn 0 0 -1
vn 0 -0 -1
vn 0 0 -1
vn -0 -0 -1
vn 0 -0 -1
vn 0 0.67382 -0.7389
vn 0 -0.67382 -0.7389
f 1//1 2//1 3//1
f 4//1 1//1 3//1
f 1//2 4//2 5//2
f 1//2 5//2 6//2
f 7//1 8//1 9//1
f 7//1 10//1 8//1
f 11//1 12//1 13//1
f 11//1 14//1 12//1
f 15//1 16//1 17//1
f 15//1 17//1 18//1
f 19//1 20//1 21//1
f 19//1 21//1 22//1
f 23//1 24//1 25//1
f 23//1 26//1 24//1
f 27//3 9//3 8//3
f 28//3 9//3 27//3
f 29//4 8//4 10//4
f 29//4 27//4 8//4
f 29//5 10//5 7//5
f 30//5 29//5 7//5
f 30//6 7//6 9//6
f 30//6 9//6 28//6
f 31//3 13//3 12//3
f 32//3 13//3 31//3
f 33//4 12//4 14//4
f 33//4 31//4 12//4
f 33//5 14//5 11//5
f 34//5 33//5 11//5
f 34//6 11//6 13//6
f 34//6 13//6 32//6
f 35//5 17//5 16//5
f 36//5 35//5 16//5
f 37//4 18//4 17//4
f 37//4 17//4 35//4
f 37//3 15//3 18//3
f 38//3 15//3 37//3
f 38//6 16//6 15//6
f 38//6 36//6 16//6
f 39//5 21//5 20//5
f 40//5 39//5 20//5
f 41//4 22//4 21//4
f 41//4 21//4 39//4
f 41//3 19//3 22//3
f 42//3 19//3 41//3
f 42//6 20//6 19//6
f 42//6 40//6 20//6
f 43//3 25//3 24//3
f 44//3 25//3 43//3
f 45//4 24//4 26//4
f 45//4 43//4 24//4
f 45//5 26//5 23//5
f 46//5 45//5 23//5
f 46//6 23//6 25//6
f 46//6 25//6 44//6
f 3//7 2//7 47//7
f 2//7 48//7 47//7
f 48//8 49//8 50//8
f 47//8 48//8 50//8
f 50//9 51//9 52//9
f 50//9 49//9 51//9
f 52//10 51//10 53//10
f 51//10 54//10 53//10
f 53//11 54//11 55//11
f 54//11 56//11 55//11
f 55//12 56//12 57//12
f 56//12 58//12 57//12
f 57//13 58//13 59//13
f 58//13 60//13 59//13
f 59//12 60//12 61//12
f 60//12 62//12 61//12
f 61//14 62//14 63//14
f 62//14 64//14 63//14
f 63//10 64//10 65//10
f 64//10 66//10 65//10
f 65//13 66//13 67//13
f 66//13 68//13 67//13
f 67//15 68//15 69//15
f 68//15 70//15 69//15
f 69//16 70//16 71//16
f 70//16 72//16 71//16
f 71//17 72//17 73//17
f 72//17 74//17 73//17
f 73//18 74//18 75//18
f 74//18 76//18 75//18
f 75//15 76//15 77//15
f 76//15 78//15 77//15
f 77//19 78//19 79//19
f 78//19 80//19 79//19
f 79//20 80//20 81//20
f 80//20 82//20 81//20
f 81//21 82//21 83//21
f 82//21 84//21 83//21
f 83//22 84//22 85//22
f 84//22 86//22 85//22
f 86//23 87//23 88//23
f 85//23 86//23 88//23
f 88//17 87//17 89//17
f 87//17 90//17 89//17
f 89//11 90//11 91//11
f 89//11 91//11 92//11
f 91//24 93//24 94//24
f 92//24 91//24 94//24
f 94//25 95//25 96//25
f 94//25 93//25 95//25
f 96//26 95//26 97//26
f 95//26 98//26 97//26
f 97//27 98//27 99//27
f 98//27 100//27 99//27
f 100//28 101//28 102//28
f 99//28 100//28 102//28
f 102//23 101//23 103//23
f 101//23 104//23 103//23
f 103//29 104//29 105//29
f 103//29 105//29 106//29
f 41//1 36//1 38//1
f 41//1 39//1 36//1
f 31//1 30//1 28//1
f 33//1 30//1 31//1
f 107//1 46//1 44//1
f 107//1 44//1 108//1
f 36//1 6//1 35//1
f 28//1 27//1 5//1
f 109//1 28//1 5//1
f 110//1 6//1 36//1
f 37//1 35//1 6//1
f 29//1 5//1 27//1
f 110//1 36//1 39//1
f 110//1 39//1 40//1
f 110//1 40//1 42//1
f 111//1 110//1 42//1
f 111//1 42//1 107//1
f 42//1 41//1 107//1
f 41//1 38//1 107//1
f 107//1 38//1 46//1
f 46//1 38//1 37//1
f 46//1 37//1 45//1
f 109//1 31//1 28//1
f 109//1 32//1 31//1
f 112//1 32//1 109//1
f 112//1 34//1 32//1
f 112//1 108//1 34//1
f 34//1 108//1 33//1
f 33//1 108//1 30//1
f 108//1 44//1 30//1
f 44//1 29//1 30//1
f 45//1 37//1 6//1
f 45//1 6//1 5//1
f 44//1 43//1 29//1
f 43//1 5//1 29//1
f 45//1 5//1 43//1
f 108//3 113//3 114//3
f 112//3 113//3 108//3
f 107//4 114//4 115//4
f 107//4 108//4 114//4
f 107//5 115//5 116//5
f 111//5 107//5 116//5
f 116//1 115//1 114//1
f 116//1 114//1 113//1
f 117//30 118//30 119//30
f 117//30 120//30 118//30
f 121//31 120//31 117//31
f 122//31 121//31 117//31
f 123//30 124//30 125//30
f 123//30 125//30 126//30
f 127//30 128//30 129//30
f 127//30 129//30 130//30
f 131//30 132//30 133//30
f 131//30 134//30 132//30
f 135//30 136//30 137//30
f 135//30 138//30 136//30
f 139//30 140//30 141//30
f 139//30 141//30 142//30
f 124//3 143//3 125//3
f 124//3 144//3 143//3
f 126//4 125//4 145//4
f 125//4 143//4 145//4
f 123//5 126//5 145//5
f 123//5 145//5 146//5
f 123//6 146//6 124//6
f 124//6 146//6 144//6
f 128//3 147//3 129//3
f 128//3 148//3 147//3
f 130//4 129//4 149//4
f 129//4 147//4 149//4
f 127//5 130//5 149//5
f 127//5 149//5 150//5
f 127//6 150//6 128//6
f 128//6 150//6 148//6
f 133//5 132//5 151//5
f 133//5 151//5 152//5
f 134//4 153//4 132//4
f 132//4 153//4 151//4
f 131//3 153//3 134//3
f 131//3 154//3 153//3
f 131//6 133//6 154//6
f 133//6 152//6 154//6
f 137//5 136//5 155//5
f 137//5 155//5 156//5
f 138//4 157//4 136//4
f 136//4 157//4 155//4
f 135//3 157//3 138//3
f 135//3 158//3 157//3
f 135//6 137//6 158//6
f 137//6 156//6 158//6
f 140//3 159//3 141//3
f 140//3 160//3 159//3
f 142//4 141//4 161//4
f 141//4 159//4 161//4
f 139//5 142//5 161//5
f 139//5 161//5 162//5
f 139//6 162//6 140//6
f 140//6 162//6 160//6
f 105//3 163//3 164//3
f 101//3 105//3 104//3
f 110//3 165//3 6//3
f 6//3 165//3 122//3
f 163//3 166//3 167//3
f 98//3 101//3 100//3
f 122//3 117//3 119//3
f 1//3 6//3 2//3
f 168//3 169//3 170//3
f 78//3 82//3 80//3
f 171//3 172//3 173//3
f 66//3 70//3 68//3
f 174//3 175//3 176//3
f 90//3 93//3 91//3
f 177//3 178//3 179//3
f 54//3 58//3 56//3
f 180//3 177//3 181//3
f 58//3 62//3 60//3
f 182//3 171//3 183//3
f 70//3 74//3 72//3
f 122//3 119//3 184//3
f 2//3 6//3 48//3
f 185//3 122//3 184//3
f 178//3 185//3 186//3
f 49//3 54//3 51//3
f 48//3 6//3 49//3
f 187//3 168//3 188//3
f 82//3 86//3 84//3
f 101//3 163//3 105//3
f 101//3 166//3 163//3
f 98//3 166//3 101//3
f 166//3 174//3 189//3
f 93//3 98//3 95//3
f 98//3 174//3 166//3
f 93//3 174//3 98//3
f 178//3 122//3 185//3
f 6//3 54//3 49//3
f 93//3 175//3 174//3
f 90//3 175//3 93//3
f 177//3 122//3 178//3
f 6//3 122//3 177//3
f 6//3 58//3 54//3
f 6//3 177//3 58//3
f 175//3 187//3 190//3
f 86//3 90//3 87//3
f 90//3 187//3 175//3
f 86//3 187//3 90//3
f 86//3 168//3 187//3
f 82//3 168//3 86//3
f 82//3 169//3 168//3
f 78//3 169//3 82//3
f 169//3 182//3 191//3
f 74//3 78//3 76//3
f 78//3 182//3 169//3
f 74//3 182//3 78//3
f 74//3 171//3 182//3
f 70//3 171//3 74//3
f 70//3 172//3 171//3
f 66//3 172//3 70//3
f 172//3 180//3 192//3
f 62//3 66//3 64//3
f 66//3 180//3 172//3
f 58//3 177//3 180//3
f 62//3 180//3 66//3
f 58//3 180//3 62//3
f 102//5 103//5 106//5
f 106//5 193//5 194//5
f 109//5 121//5 195//5
f 109//5 5//5 121//5
f 97//5 99//5 102//5
f 194//5 196//5 197//5
f 4//5 3//5 5//5
f 121//5 118//5 120//5
f 77//5 79//5 81//5
f 198//5 199//5 200//5
f 65//5 67//5 69//5
f 201//5 202//5 203//5
f 89//5 92//5 94//5
f 204//5 205//5 206//5
f 53//5 55//5 57//5
f 207//5 208//5 209//5
f 57//5 59//5 61//5
f 210//5 211//5 207//5
f 69//5 71//5 73//5
f 212//5 213//5 201//5
f 3//5 47//5 5//5
f 121//5 214//5 118//5
f 47//5 50//5 5//5
f 50//5 52//5 53//5
f 209//5 215//5 216//5
f 216//5 214//5 121//5
f 81//5 83//5 85//5
f 217//5 218//5 198//5
f 102//5 106//5 194//5
f 97//5 102//5 194//5
f 97//5 194//5 197//5
f 94//5 96//5 97//5
f 197//5 219//5 204//5
f 94//5 97//5 197//5
f 94//5 197//5 204//5
f 5//5 50//5 53//5
f 209//5 216//5 121//5
f 89//5 94//5 204//5
f 89//5 204//5 206//5
f 5//5 53//5 57//5
f 5//5 57//5 121//5
f 207//5 209//5 121//5
f 57//5 207//5 121//5
f 85//5 88//5 89//5
f 206//5 220//5 217//5
f 85//5 89//5 206//5
f 85//5 206//5 217//5
f 81//5 85//5 217//5
f 81//5 217//5 198//5
f 77//5 81//5 198//5
f 77//5 198//5 200//5
f 73//5 75//5 77//5
f 200//5 221//5 212//5
f 73//5 77//5 200//5
f 73//5 200//5 212//5
f 69//5 73//5 212//5
f 69//5 212//5 201//5
f 65//5 69//5 201//5
f 65//5 201//5 203//5
f 61//5 63//5 65//5
f 203//5 222//5 210//5
f 61//5 65//5 203//5
f 57//5 61//5 207//5
f 61//5 203//5 210//5
f 61//5 210//5 207//5
f 214//32 119//32 118//32
f 214//32 184//32 119//32
f 216//33 185//33 184//33
f 216//33 184//33 214//33
f 215//34 186//34 216//34
f 186//34 185//34 216//34
f 209//35 186//35 215//35
f 209//35 178//35 186//35
f 208//36 178//36 209//36
f 208//36 179//36 178//36
f 207//37 179//37 208//37
f 207//37 177//37 179//37
f 211//38 177//38 207//38
f 211//38 181//38 177//38
f 210//37 181//37 211//37
f 210//37 180//37 181//37
f 222//39 180//39 210//39
f 222//39 192//39 180//39
f 203//35 192//35 222//35
f 203//35 172//35 192//35
f 202//38 172//38 203//38
f 202//38 173//38 172//38
f 201//40 173//40 202//40
f 201//40 171//40 173//40
f 213//41 171//41 201//41
f 213//41 183//41 171//41
f 212//42 183//42 213//42
f 212//42 182//42 183//42
f 221//43 182//43 212//43
f 221//43 191//43 182//43
f 200//40 191//40 221//40
f 200//40 169//40 191//40
f 199//44 169//44 200//44
f 199//44 170//44 169//44
f 198//45 170//45 199//45
f 198//45 168//45 170//45
f 218//46 168//46 198//46
f 218//46 188//46 168//46
f 217//47 188//47 218//47
f 217//47 187//47 188//47
f 220//48 190//48 187//48
f 220//48 187//48 217//48
f 206//42 190//42 220//42
f 206//42 175//42 190//42
f 176//36 175//36 206//36
f 205//36 176//36 206//36
f 204//49 174//49 176//49
f 204//49 176//49 205//49
f 219//50 189//50 204//50
f 189//50 174//50 204//50
f 197//51 189//51 219//51
f 197//51 166//51 189//51
f 196//52 166//52 197//52
f 196//52 167//52 166//52
f 194//53 163//53 167//53
f 194//53 167//53 196//53
f 193//48 163//48 194//48
f 193//48 164//48 163//48
f 105//54 164//54 193//54
f 106//54 105//54 193//54
f 149//30 147//30 144//30
f 149//30 144//30 146//30
f 157//30 154//30 155//30
f 155//30 154//30 152//30
f 223//30 160//30 162//30
f 223//30 224//30 160//30
f 144//30 121//30 143//30
f 152//30 151//30 122//30
f 195//30 121//30 144//30
f 165//30 152//30 122//30
f 145//30 143//30 121//30
f 153//30 122//30 151//30
f 195//30 144//30 147//30
f 195//30 147//30 148//30
f 225//30 195//30 148//30
f 225//30 148//30 150//30
f 225//30 150//30 224//30
f 150//30 149//30 224//30
f 149//30 146//30 224//30
f 224//30 146//30 160//30
f 160//30 146//30 159//30
f 146//30 145//30 159//30
f 165//30 155//30 152//30
f 165//30 156//30 155//30
f 165//30 158//30 156//30
f 226//30 158//30 165//30
f 226//30 223//30 158//30
f 158//30 223//30 157//30
f 157//30 223//30 154//30
f 223//30 162//30 154//30
f 162//30 161//30 154//30
f 154//30 161//30 153//30
f 161//30 122//30 153//30
f 161//30 121//30 122//30
f 161//30 159//30 121//30
f 159//30 145//30 121//30
f 227//3 224//3 228//3
f 227//3 225//3 224//3
f 229//4 228//4 223//4
f 228//4 224//4 223//4
f 230//5 229//5 223//5
f 230//5 223//5 226//5
f 230//30 228//30 229//30
f 230//30 227//30 228//30
f 231//4 232//4 233//4
f 231//4 233//4 234//4
f 231//1 235//1 232//1
f 231//1 236//1 235//1
f 231//3 234//3 236//3
f 236//3 234//3 237//3
f 234//30 233//30 238//30
f 234//30 238//30 237//30
f 232//5 235//5 233//5
f 235//5 238//5 233//5
f 236//6 238//6 235//6
f 236//6 237//6 238//6
f 239//4 240//4 241//4
f 239//4 242//4 240//4
f 239//1 241//1 243//1
f 239//1 243//1 244//1
f 239//5 244//5 242//5
f 244//5 245//5 242//5
f 242//30 246//30 240//30
f 242//30 245//30 246//30
f 241//3 240//3 243//3
f 243//3 240//3 246//3
f 244//6 243//6 246//6
f 244//6 246//6 245//6
f 247//55 226//55 165//55
f 247//56 230//56 226//56
f 112//4 109//4 113//4
f 227//4 195//4 225//4
f 111//56 116//56 110//56
f 110//57 247//57 165//57
f 110//58 248//58 247//58
f 110//59 116//59 248//59
f 116//60 249//60 248//60
f 250//61 230//61 247//61
f 116//4 113//4 249//4
f 109//4 249//4 113//4
f 109//4 195//4 249//4
f 249//62 195//62 250//62
f 250//63 195//63 227//63
f 250//64 227//64 230//64
f 251//65 252//65 253//65
f 253//65 252//65 254//65
f 252//66 255//66 254//66
f 254//66 255//66 256//66
f 249//30 251//30 248//30
f 248//30 251//30 253//30
f 248//5 253//5 247//5
f 253//5 254//5 256//5
f 253//5 256//5 247//5
f 250//1 256//1 255//1
f 250//1 247//1 256//1
f 249//3 250//3 251//3
f 251//3 255//3 252//3
f 251//3 250//3 255//3
# Vertices: 256, normals: 66, texture coordinates: 0, faces: 500

